<svg xmlns="http://www.w3.org/2000/svg" viewBox="0 0 1400 1000" width="1400" height="1000">
    <defs><radialGradient id="bgg" cx="60%" cy="65%" r="75%">
      <stop offset="0%" stop-color="#2a2a2a"></stop>
      <stop offset="50%" stop-color="#101010"></stop>
      <stop offset="100%" stop-color="#000"></stop>
    </radialGradient><filter id="gr" x="0" y="0" width="100%" height="100%">
    <feTurbulence type="fractalNoise" baseFrequency="0.88" numOctaves="2" seed="4"></feTurbulence>
    <feColorMatrix values="0 0 0 0 0.55  0 0 0 0 0.53  0 0 0 0 0.5  0 0 0 0.35 0"></feColorMatrix>
  </filter><radialGradient id="vig" cx="50%" cy="50%" r="70%">
    <stop offset="60%" stop-color="#000" stop-opacity="0"></stop>
    <stop offset="100%" stop-color="#000" stop-opacity=".75"></stop>
  </radialGradient></defs>
    <rect width="1400" height="1000" fill="url(#bgg)"></rect>
    <rect x="0" y="150" width="1400" height="700" fill="#0a0a0a"></rect><rect x="56" y="250" width="238.00000000000003" height="500" fill="#2a2a2a" stroke="#4a4a4a"></rect><rect x="84" y="280" width="182" height="40" fill="#6a6a6a" opacity=".5"></rect><rect x="322" y="250" width="238.00000000000003" height="500" fill="#2a2a2a" stroke="#4a4a4a"></rect><rect x="350" y="280" width="182" height="40" fill="#6a6a6a" opacity=".5"></rect><rect x="588" y="250" width="238.00000000000003" height="500" fill="#2a2a2a" stroke="#4a4a4a"></rect><rect x="616" y="280" width="182" height="40" fill="#6a6a6a" opacity=".5"></rect><rect x="854" y="250" width="238.00000000000003" height="500" fill="#2a2a2a" stroke="#4a4a4a"></rect><rect x="882" y="280" width="182" height="40" fill="#6a6a6a" opacity=".5"></rect><rect x="1120" y="250" width="238.00000000000003" height="500" fill="#2a2a2a" stroke="#4a4a4a"></rect><rect x="1148" y="280" width="182" height="40" fill="#6a6a6a" opacity=".5"></rect><rect x="6" y="80" width="88" height="8" fill="#dcd6c8" opacity=".2"></rect><rect x="6" y="860" width="88" height="8" fill="#dcd6c8" opacity=".2"></rect><rect x="106" y="80" width="88" height="8" fill="#dcd6c8" opacity=".2"></rect><rect x="106" y="860" width="88" height="8" fill="#dcd6c8" opacity=".2"></rect><rect x="206" y="80" width="88" height="8" fill="#dcd6c8" opacity=".2"></rect><rect x="206" y="860" width="88" height="8" fill="#dcd6c8" opacity=".2"></rect><rect x="306" y="80" width="88" height="8" fill="#dcd6c8" opacity=".2"></rect><rect x="306" y="860" width="88" height="8" fill="#dcd6c8" opacity=".2"></rect><rect x="406" y="80" width="88" height="8" fill="#dcd6c8" opacity=".2"></rect><rect x="406" y="860" width="88" height="8" fill="#dcd6c8" opacity=".2"></rect><rect x="506" y="80" width="88" height="8" fill="#dcd6c8" opacity=".2"></rect><rect x="506" y="860" width="88" height="8" fill="#dcd6c8" opacity=".2"></rect><rect x="606" y="80" width="88" height="8" fill="#dcd6c8" opacity=".2"></rect><rect x="606" y="860" width="88" height="8" fill="#dcd6c8" opacity=".2"></rect><rect x="706" y="80" width="88" height="8" fill="#dcd6c8" opacity=".2"></rect><rect x="706" y="860" width="88" height="8" fill="#dcd6c8" opacity=".2"></rect><rect x="806" y="80" width="88" height="8" fill="#dcd6c8" opacity=".2"></rect><rect x="806" y="860" width="88" height="8" fill="#dcd6c8" opacity=".2"></rect><rect x="906" y="80" width="88" height="8" fill="#dcd6c8" opacity=".2"></rect><rect x="906" y="860" width="88" height="8" fill="#dcd6c8" opacity=".2"></rect><rect x="1006" y="80" width="88" height="8" fill="#dcd6c8" opacity=".2"></rect><rect x="1006" y="860" width="88" height="8" fill="#dcd6c8" opacity=".2"></rect><rect x="1106" y="80" width="88" height="8" fill="#dcd6c8" opacity=".2"></rect><rect x="1106" y="860" width="88" height="8" fill="#dcd6c8" opacity=".2"></rect><rect x="1206" y="80" width="88" height="8" fill="#dcd6c8" opacity=".2"></rect><rect x="1206" y="860" width="88" height="8" fill="#dcd6c8" opacity=".2"></rect><rect x="1306" y="80" width="88" height="8" fill="#dcd6c8" opacity=".2"></rect><rect x="1306" y="860" width="88" height="8" fill="#dcd6c8" opacity=".2"></rect>
    <rect width="1400" height="1000" fill="url(#vig)"></rect>
    <rect width="1400" height="1000" fill="#fff" filter="url(#gr)" opacity=".22" style="mix-blend-mode:overlay"></rect>
    <rect x="10" y="10" width="1380" height="980" fill="none" stroke="#dcd6c8" stroke-width="1" opacity=".25"></rect>
    <text x="22" y="38" font-family="&#39;JetBrains Mono&#39;,monospace" font-size="16" fill="#dcd6c8" opacity=".65" letter-spacing="4">PH-08 · CASES</text>
    <text x="22" y="946" font-family="&#39;Noto Serif TC&#39;,&#39;Songti SC&#39;,serif" font-weight="900" font-size="44" fill="#dcd6c8" opacity=".88">情 境 片 段</text>
    <text x="22" y="976" font-family="&#39;JetBrains Mono&#39;,monospace" font-size="14" fill="#dcd6c8" opacity=".6" letter-spacing="2">FILM STRIP · SEQUENCE</text>
  </svg>