<svg xmlns="http://www.w3.org/2000/svg" viewBox="0 0 1400 1750" width="1400" height="1750">
    <defs><radialGradient id="bgg" cx="40%" cy="45%" r="75%">
      <stop offset="0%" stop-color="#3a3a3a"></stop>
      <stop offset="55%" stop-color="#1a1a1a"></stop>
      <stop offset="100%" stop-color="#050505"></stop>
    </radialGradient><filter id="gr" x="0" y="0" width="100%" height="100%">
    <feTurbulence type="fractalNoise" baseFrequency="0.88" numOctaves="2" seed="11"></feTurbulence>
    <feColorMatrix values="0 0 0 0 0.55  0 0 0 0 0.53  0 0 0 0 0.5  0 0 0 0.35 0"></feColorMatrix>
  </filter><radialGradient id="vig" cx="50%" cy="50%" r="70%">
    <stop offset="60%" stop-color="#000" stop-opacity="0"></stop>
    <stop offset="100%" stop-color="#000" stop-opacity=".75"></stop>
  </radialGradient></defs>
    <rect width="1400" height="1750" fill="url(#bgg)"></rect>
    <rect x="0" y="962.5000000000001" width="1400" height="787.5" fill="#ffffff" opacity=".04"></rect><rect x="0" y="1151" width="57.333333333333336" height="599" fill="#050505" opacity=".92"></rect><rect x="4" y="1197" width="3" height="5" fill="#dcd6c8" opacity=".55"></rect><rect x="4" y="1245" width="3" height="5" fill="#dcd6c8" opacity=".55"></rect><rect x="4" y="1293" width="3" height="5" fill="#dcd6c8" opacity=".55"></rect><rect x="4" y="1341" width="3" height="5" fill="#dcd6c8" opacity=".55"></rect><rect x="4" y="1389" width="3" height="5" fill="#dcd6c8" opacity=".55"></rect><rect x="4" y="1437" width="3" height="5" fill="#dcd6c8" opacity=".55"></rect><rect x="4" y="1485" width="3" height="5" fill="#dcd6c8" opacity=".55"></rect><rect x="4" y="1533" width="3" height="5" fill="#dcd6c8" opacity=".55"></rect><rect x="4" y="1581" width="3" height="5" fill="#dcd6c8" opacity=".55"></rect><rect x="4" y="1629" width="3" height="5" fill="#dcd6c8" opacity=".55"></rect><rect x="4" y="1677" width="3" height="5" fill="#dcd6c8" opacity=".55"></rect><rect x="4" y="1725" width="3" height="5" fill="#dcd6c8" opacity=".55"></rect><rect x="58.333333333333336" y="769.2090479757998" width="57.333333333333336" height="980.7909520242002" fill="#050505" opacity=".92"></rect><rect x="116.66666666666667" y="1249.38332428033" width="57.333333333333336" height="500.61667571966996" fill="#050505" opacity=".92"></rect><rect x="175" y="1507.438652696177" width="57.333333333333336" height="242.56134730382297" fill="#050505" opacity=".92"></rect><rect x="233.33333333333334" y="960.7663598116359" width="57.333333333333336" height="789.2336401883641" fill="#050505" opacity=".92"></rect><rect x="291.6666666666667" y="843.5824616399563" width="57.333333333333336" height="906.4175383600437" fill="#050505" opacity=".92"></rect><rect x="350" y="1420.451754723514" width="57.333333333333336" height="329.54824527648617" fill="#050505" opacity=".92"></rect><rect x="408.3333333333333" y="1388.982788211258" width="57.333333333333336" height="361.01721178874215" fill="#050505" opacity=".92"></rect><rect x="466.6666666666667" y="820.2227012802491" width="57.333333333333336" height="929.7772987197509" fill="#050505" opacity=".92"></rect><rect x="525" y="998.2548793447138" width="57.333333333333336" height="751.7451206552862" fill="#050505" opacity=".92"></rect><rect x="583.3333333333334" y="1521.1380343736294" width="57.333333333333336" height="228.8619656263706" fill="#050505" opacity=".92"></rect><rect x="641.6666666666666" y="1208.3646249384665" width="57.333333333333336" height="541.6353750615334" fill="#050505" opacity=".92"></rect><rect x="700" y="766.0797334450724" width="57.333333333333336" height="983.9202665549276" fill="#050505" opacity=".92"></rect><rect x="758.3333333333334" y="1192.8250892382694" width="57.333333333333336" height="557.1749107617306" fill="#050505" opacity=".92"></rect><rect x="816.6666666666666" y="1525.1424016113874" width="57.333333333333336" height="224.8575983886126" fill="#050505" opacity=".92"></rect><rect x="875" y="1012.7625337014653" width="57.333333333333336" height="737.2374662985347" fill="#050505" opacity=".92"></rect><rect x="933.3333333333334" y="812.4798712644711" width="57.333333333333336" height="937.5201287355289" fill="#050505" opacity=".92"></rect><rect x="991.6666666666666" y="1376.4703758901046" width="57.333333333333336" height="373.5296241098954" fill="#050505" opacity=".92"></rect><rect x="1050" y="1431.4188956151645" width="57.333333333333336" height="318.58110438483556" fill="#050505" opacity=".92"></rect><rect x="1108.3333333333333" y="853.268762517005" width="57.333333333333336" height="896.731237482995" fill="#050505" opacity=".92"></rect><rect x="1166.6666666666667" y="947.3031658437909" width="57.333333333333336" height="802.6968341562091" fill="#050505" opacity=".92"></rect><rect x="1225" y="1501.2216686559073" width="57.333333333333336" height="248.77833134409275" fill="#050505" opacity=".92"></rect><rect x="1283.3333333333333" y="1264.4485665775992" width="57.333333333333336" height="485.55143342240075" fill="#050505" opacity=".92"></rect><rect x="1341.6666666666667" y="771.5438849656064" width="57.333333333333336" height="978.4561150343936" fill="#050505" opacity=".92"></rect><circle cx="1092" cy="490.00000000000006" r="140" fill="#dcd6c8" opacity=".3"></circle>
    <rect width="1400" height="1750" fill="url(#vig)"></rect>
    <rect width="1400" height="1750" fill="#fff" filter="url(#gr)" opacity=".22" style="mix-blend-mode:overlay"></rect>
    <rect x="10" y="10" width="1380" height="1730" fill="none" stroke="#dcd6c8" stroke-width="1" opacity=".25"></rect>
    <text x="22" y="38" font-family="&#39;JetBrains Mono&#39;,monospace" font-size="16" fill="#dcd6c8" opacity=".65" letter-spacing="4">PH-12 · CONTACT</text>
    <text x="22" y="1696" font-family="&#39;Noto Serif TC&#39;,&#39;Songti SC&#39;,serif" font-weight="900" font-size="44" fill="#dcd6c8" opacity=".88">台 北 一 夜</text>
    <text x="22" y="1726" font-family="&#39;JetBrains Mono&#39;,monospace" font-size="14" fill="#dcd6c8" opacity=".6" letter-spacing="2">TAIPEI · NIGHT</text>
  </svg>