<?xml version="1.0"?>

<svg version="1.2" baseProfile="tiny" id="圖層_1" xmlns="http://www.w3.org/2000/svg" xmlns:xlink="http://www.w3.org/1999/xlink" x="0px" y="0px" width="115px" height="115px" viewBox="0 0 115 115" xml:space="preserve">
<path display="none" fill="#FFFFFF" d="M112.57,85.955v-5.097c0-3.619-2.807-7.334-7.516-7.334c0,0-7.673,0-11.558,0&#xA;&#x9;c-0.661-1.065-1.795-1.822-3.147-1.822h-7.15c6.988-4.655,12.86-16.209,12.86-41.887c0-1.266-0.632-2.451-1.684-3.141&#xA;&#x9;c-1.05-0.701-2.367-0.833-3.541-0.336l-6.266,2.641c-0.171-1.186-0.424-2.368-0.746-3.545c4.883-1.089,8.563-5.453,8.563-10.65&#xA;&#x9;c0-6.017-4.9-10.911-10.922-10.911c-4.195,0-7.845,2.39-9.659,5.887c-4.093-2.45-8.72-3.747-13.53-3.747&#xA;&#x9;c-13.435,0-24.572,10.045-26.309,23.02l-5.757-2.695c-1.175-0.553-2.532-0.459-3.621,0.233c-1.086,0.697-1.746,1.893-1.746,3.173&#xA;&#x9;c0,21.29,4.733,35.765,13.284,41.692c-1.34,0.575-2.275,1.912-2.275,3.447c0,0,0,0.38,0,0.47c-3.742,0-8.997,0-8.997,0&#xA;&#x9;c-0.291,0-0.571,0.04-0.844,0.115c-0.238-0.137-0.476-0.252-0.723-0.326L8.978,71.298c-1.142-0.36-2.385-0.148-3.355,0.558&#xA;&#x9;c-0.959,0.713-1.534,1.839-1.534,3.027v3.541c0,0.398,0.065,0.783,0.177,1.162c-0.112,0.363-0.177,0.752-0.177,1.15v3.556&#xA;&#x9;c0,1.628,1.051,3.091,2.609,3.579l3.89,1.263l-3.84,1.168c-1.573,0.49-2.659,1.948-2.659,3.606v3.949&#xA;&#x9;c0,0.606,0.161,1.206,0.426,1.73c-0.265,0.517-0.426,1.115-0.426,1.722v4.167c0,2.08,1.683,3.76,3.769,3.76h6.448&#xA;&#x9;c0.19,0,0.366-0.018,0.571-0.049c1.821-0.275,4.11-0.888,6.463-1.914c0.317,1.758,1.781,3.115,3.635,3.115h7.584&#xA;&#x9;c2.432,0,3.875-0.089,8.892-1.756c2.004,0.77,5.786,1.827,12.232,2.237c1.721,0.104,3.294-0.978,3.828-2.615l1.627-5.093&#xA;&#x9;c0.419-1.298,0.062-2.708-0.869-3.702c-0.928-0.996-2.364-1.41-3.695-1.084l0.135-0.037c0,0-0.237,0.034-0.573,0.044&#xA;&#x9;c1.173-2.501,1.438-4.652,1.438-5.987c0-0.692-0.138-1.411-0.348-2.101c0.094,0,0.622,0,0.622,0c1.858,0,3.396-1.359,3.701-3.135&#xA;&#x9;c0.361,0.672,0.93,1.209,1.604,1.564c-0.503,0.628-0.825,1.437-0.825,2.327v2.875c0,2.082,1.675,3.769,3.758,3.769&#xA;&#x9;c0,0,0.505,0,0.658,0c0,0.272,0,0.285,0,0.541c-0.182,0-0.658,0-0.658,0c-2.083,0-3.758,1.703-3.758,3.771v3.941&#xA;&#x9;c0,1.664,1.083,3.135,2.687,3.606c0.455,0.138,4.605,1.314,13.003,1.314h9.679c0.69,0.018,5.917,0.028,13.881-2.237&#xA;&#x9;c0.684,1.012,1.822,1.667,3.083,1.667h4.612c1.155,0,2.248-0.537,2.964-1.454c0.524-0.663,0.801-1.475,0.801-2.315&#xA;&#x9;c0-0.303-0.039-0.595-0.103-0.9l-1.252-5.099c-0.327-1.35-1.392-2.341-2.688-2.692c0-0.505,0-1.015,0-1.386h0.711&#xA;&#x9;c1.809,0,3.36-1.305,3.696-3.076c0.047-0.245,0.355-2.07-0.054-4.652C112.098,88.033,112.57,87.044,112.57,85.955z M72.452,59.58&#xA;&#x9;l-28.844-0.023c-1.14,0-4.625-3.468-6.56-12.437c0.315,0.25,0.657,0.481,1.019,0.691c-0.024,0.146-0.031,0.313-0.031,0.471&#xA;&#x9;c0,0.952,0.362,1.891,1.033,2.607c5.075,5.314,11.88,8.223,19.207,8.223c8.701,0,16.438-4.208,21.29-10.693&#xA;&#x9;C77.943,56.435,75.049,59.58,72.452,59.58z M59.182,79.375c-0.789-2.159-2.833-4.022-6.725-4.022c0,0-3.397-0.057-6.345-0.119&#xA;&#x9;c0-0.052,0-0.351,0-0.351c0-0.148-0.014-0.298-0.037-0.44H62.32C60.778,75.311,59.557,76.881,59.182,79.375z"></path>
<g>
&#x9;<g>
&#x9;&#x9;<polygon fill="#009944" points="14.288,81.675 0.354,77.327 0.354,81.32 14.288,85.813 &#x9;&#x9;"></polygon>
&#x9;&#x9;<polygon fill="#009944" points="14.174,88.51 0.354,83.932 0.354,87.973 14.174,92.434 &#x9;&#x9;"></polygon>
&#x9;&#x9;<polygon fill="#009944" points="14.174,94.605 0.354,98.856 0.354,103.311 14.174,99.281 &#x9;&#x9;"></polygon>
&#x9;&#x9;<path fill="#009944" d="M54.68,90.496c0,0,0-3.807,0-5.444c0-1.633-0.924-2.941-3.838-2.941c-2.916,0-11.435-0.217-11.435-0.217&#xA;&#x9;&#x9;&#x9;v-4.566h-7.624v4.783H17.331c0,0,0,10.838,0,13.357c0,2.551-1.852,13.434-16.977,11.774v4.693h7.299&#xA;&#x9;&#x9;&#x9;c0,0,16.968-2.612,16.968-15.57H41.61c0,0,0.547,1.97-4.345,7.642c0,0-1.536-0.339-3.933-5.672h-7.285c0,0,0.212,3.92,5.767,8.713&#xA;&#x9;&#x9;&#x9;c0,0-1.741,1.745-12.083,1.745v4.467c0,0,6.197,0,8.585,0c2.407,0,3.616,0,10.253-2.29c0,0,3.692,2.173,13.929,2.833l1.852-5.783&#xA;&#x9;&#x9;&#x9;c0,0-2.826,0.773-9.036-0.862c4.359-4.464,4.795-8.493,4.795-10.019c0-1.528-1.31-4.148-3.479-4.148c-2.837,0-6.873,0-6.873,0&#xA;&#x9;&#x9;&#x9;v-7.177h6.537v4.683H54.68z M31.698,92.99h-7.176v-7.177h7.176V92.99z"></path>
&#x9;</g>
&#x9;<g>
&#x9;&#x9;<path fill="#009944" d="M110.386,80.039c-3.036,0-16.646,0-16.646,0v-2.064h-9.691v1.97c0,0-16.167,0.153-18.019,0.153&#xA;&#x9;&#x9;&#x9;c-1.86,0-3.441,0.82-3.441,4.085c0,3.274,0,5.005,0,5.005h7.964v-5.227h36.468v5.881h7.627c0,0,0-4.243,0-5.759&#xA;&#x9;&#x9;&#x9;C114.646,82.549,113.442,80.039,110.386,80.039z"></path>
&#x9;&#x9;<path fill="#009944" d="M70.441,91.258v2.4h4.994c0,0,5.559-1.42,5.559-8.388h-5.871C75.123,85.271,75.543,91.258,70.441,91.258z"></path>
&#x9;&#x9;<path fill="#009944" d="M106.368,107.375c0,0-2.616,1.077-13.182,1.077v-2.61h15.136c0,0,0-3.262,0-4.798&#xA;&#x9;&#x9;&#x9;c0-1.509-1.521-3.025-3.595-3.025c-2.061,0-11.427,0-11.427,0s0.331-2.509-6.423-2.509v-0.547h13.938c0,0,2.27,0.325,4.243,0.325&#xA;&#x9;&#x9;&#x9;v-4.03h-2.614c0,0-1.629,1.091-8.053,1.091c0,0,3.811-1.415,10.667-4.676v-2.295h-5.23l-2.179,1.857l-1.193-1.857h-5.121&#xA;&#x9;&#x9;&#x9;l1.633,3.698c0,0-1.853,1.308-3.041,1.42v-5.226h-6.974l-0.139,7.72c0,0-3.774,2.62-18.81,2.62v3.271h5.016v8.386h8.712v-1.211&#xA;&#x9;&#x9;&#x9;h6.199v3.267c-14.804,0-15.676-1.304-15.676-1.304h-4.251v4.476c0,0,4.359,1.308,13.508,1.308c9.141,0,10.993,0,10.993,0&#xA;&#x9;&#x9;&#x9;s7.079,0.21,18.078-3.499l1.089,2.839h5.222l-1.416-5.768H106.368z M93.216,100.731h6.534v1.849h-6.534V100.731z M84.048,96.167&#xA;&#x9;&#x9;&#x9;v2.063h-6.096C81.764,97.355,84.048,96.167,84.048,96.167z M84.155,102.58H77.62v-1.849h6.535V102.58z"></path>
&#x9;&#x9;<path fill="#009944" d="M107.674,91.258c0,0,0.812,1.732,0.812,6.203h4.9c0,0,0.483-2.608-0.656-6.203H107.674z"></path>
&#x9;</g>
&#x9;<g>
&#x9;&#x9;<path fill="#009944" d="M19.312,26.229c0,28.704,7.635,46.334,21.921,46.334c13.746,0,18.231,0,33.747,0&#xA;&#x9;&#x9;&#x9;c15.517,0,20.961-20.827,20.961-46.278c-6.811,2.86-8.714,3.677-8.714,3.677c0,28.586-8.034,34.297-13.749,34.297&#xA;&#x9;&#x9;&#x9;c-5.713,0-26.941-0.037-32.653-0.037c-5.724,0-13.207-11.255-13.207-34.132L19.312,26.229z"></path>
&#x9;&#x9;<path fill="#EA5504" d="M83.681,17.358c4.461,0,8.094-3.611,8.094-8.08c0-4.464-3.633-8.083-8.094-8.083&#xA;&#x9;&#x9;&#x9;c-4.453,0-8.078,3.62-8.078,8.083C75.603,13.747,79.228,17.358,83.681,17.358z"></path>
&#x9;&#x9;<g>
&#x9;&#x9;&#x9;<path fill="#009944" d="M47.629,41.529c4.484-4.615,4.765-11.567,10.895-20.814c5.673-8.591,9.842-10.266,14.539-11.768&#xA;&#x9;&#x9;&#x9;&#x9;c-4.334-3.334-9.746-5.321-15.633-5.321c-14.237,0-25.794,11.558-25.794,25.793c0,4.464,1.305,8.343,3.308,12.015&#xA;&#x9;&#x9;&#x9;&#x9;C37.386,45.097,45.004,44.259,47.629,41.529z"></path>
&#x9;&#x9;&#x9;<path fill="#009944" d="M67.63,20.843c-4.762,6.397-8.64,15.784-15.038,19.873c-5.353,3.414-9.622,5.456-13.817,6.483&#xA;&#x9;&#x9;&#x9;&#x9;c4.692,4.928,11.311,8.012,18.654,8.012c14.233,0,25.784-11.546,25.784-25.792c0-2.469-0.364-4.85-1.014-7.119&#xA;&#x9;&#x9;&#x9;&#x9;C80.73,17.162,72.263,14.613,67.63,20.843z"></path>
&#x9;&#x9;</g>
&#x9;</g>
</g>
</svg>